<svg width="1280" height="800" viewBox="0 0 1280 800" xmlns="http://www.w3.org/2000/svg" font-family="Helvetica, Arial, sans-serif">
  <defs>
    <style>
      .code { font-family: Menlo, Consolas, monospace; font-size: 13px; }
      .ui { font-family: Helvetica, Arial, sans-serif; }
    </style>
  </defs>

  <!-- window -->
  <rect width="1280" height="800" fill="#1E1F22"/>

  <!-- title bar -->
  <rect x="0" y="0" width="1280" height="30" fill="#3C3F41"/>
  <circle cx="16" cy="15" r="5" fill="#FF5F57"/>
  <circle cx="34" cy="15" r="5" fill="#FEBC2E"/>
  <circle cx="52" cy="15" r="5" fill="#28C840"/>
  <text x="640" y="19" text-anchor="middle" fill="#9DA0A8" font-size="12">claude-watch — UserService.java</text>

  <!-- project panel -->
  <rect x="0" y="30" width="230" height="570" fill="#3C3F41"/>
  <text x="16" y="52" fill="#808890" font-size="11" font-weight="bold">PROJECT</text>
  <g class="ui" font-size="12.5" fill="#A9B7C6">
    <text x="16" y="78">▾ claude-watch</text>
    <text x="30" y="100">▾ src/main/java</text>
    <text x="46" y="122">▾ com.app</text>
    <rect x="56" y="129" width="174" height="20" fill="#2D5177"/>
    <text x="62" y="144" fill="#FFFFFF">UserService.java</text>
    <text x="62" y="166">OrderService.java</text>
    <text x="62" y="188">App.java</text>
    <text x="30" y="210">▾ src/main/resources</text>
    <text x="46" y="232" fill="#6A8759">schema.sql</text>
    <text x="16" y="254">README.md</text>
    <text x="16" y="276" fill="#808890">build.gradle.kts</text>
  </g>

  <!-- editor -->
  <rect x="230" y="30" width="1050" height="570" fill="#2B2B2B"/>
  <!-- tab strip -->
  <rect x="230" y="30" width="1050" height="28" fill="#3C3F41"/>
  <rect x="230" y="30" width="170" height="28" fill="#2B2B2B"/>
  <rect x="230" y="56" width="170" height="2" fill="#CC785C"/>
  <text x="246" y="49" class="ui" font-size="12.5" fill="#DDDDDD">UserService.java</text>
  <!-- gutter -->
  <rect x="230" y="58" width="58" height="542" fill="#313335"/>
  <g class="code" fill="#606366" text-anchor="end">
    <text x="280" y="92">1</text><text x="280" y="114">2</text><text x="280" y="136">3</text>
    <text x="280" y="158">4</text><text x="280" y="180">5</text><text x="280" y="202">6</text>
    <text x="280" y="224">7</text><text x="280" y="246">8</text><text x="280" y="268">9</text>
    <text x="280" y="290">10</text><text x="280" y="312">11</text><text x="280" y="334">12</text>
    <text x="280" y="356">13</text><text x="280" y="378">14</text><text x="280" y="400">15</text>
  </g>

  <!-- changed-line highlight (rows 7,8,9) -->
  <rect x="288" y="210" width="992" height="66" fill="#2E4D34"/>
  <rect x="288" y="210" width="3" height="66" fill="#629755"/>

  <!-- code -->
  <g class="code">
    <text x="300" y="92"><tspan fill="#CC7832">package</tspan><tspan fill="#A9B7C6"> com.app;</tspan></text>
    <text x="300" y="136"><tspan fill="#CC7832">import</tspan><tspan fill="#A9B7C6"> java.util.List;</tspan></text>
    <text x="300" y="180"><tspan fill="#CC7832">public class</tspan><tspan fill="#FFC66D"> UserService</tspan><tspan fill="#A9B7C6"> {</tspan></text>
    <text x="300" y="224"><tspan fill="#A9B7C6">    </tspan><tspan fill="#CC7832">public</tspan><tspan fill="#FFC66D"> User</tspan><tspan fill="#FFC66D"> findById</tspan><tspan fill="#A9B7C6">(</tspan><tspan fill="#CC7832">long</tspan><tspan fill="#A9B7C6"> id) {</tspan></text>
    <text x="300" y="246"><tspan fill="#A9B7C6">        </tspan><tspan fill="#CC7832">return</tspan><tspan fill="#9876AA"> repository</tspan><tspan fill="#A9B7C6">.findById(id)</tspan></text>
    <text x="300" y="268"><tspan fill="#A9B7C6">            .orElseThrow(() </tspan><tspan fill="#CC7832">-&gt;</tspan><tspan fill="#CC7832"> new</tspan><tspan fill="#FFC66D"> NotFound</tspan><tspan fill="#A9B7C6">(id));</tspan></text>
    <text x="300" y="290"><tspan fill="#A9B7C6">    }</tspan></text>
    <text x="300" y="334"><tspan fill="#A9B7C6">    </tspan><tspan fill="#CC7832">public</tspan><tspan fill="#FFC66D"> List</tspan><tspan fill="#A9B7C6">&lt;</tspan><tspan fill="#FFC66D">User</tspan><tspan fill="#A9B7C6">&gt; all() {</tspan></text>
    <text x="300" y="356"><tspan fill="#A9B7C6">        </tspan><tspan fill="#CC7832">return</tspan><tspan fill="#9876AA"> repository</tspan><tspan fill="#A9B7C6">.findAll();</tspan></text>
    <text x="300" y="378"><tspan fill="#A9B7C6">    }</tspan></text>
    <text x="300" y="400"><tspan fill="#A9B7C6">}</tspan></text>
  </g>

  <!-- notification balloon -->
  <g>
    <rect x="892" y="392" width="360" height="150" rx="6" fill="#3C3F41" stroke="#54585B" stroke-width="1"/>
    <!-- eye + spark icon -->
    <g transform="translate(912,410) scale(1.0)">
      <path d="M0 10 Q10 3 20 10 Q10 17 0 10 Z" fill="none" stroke="#CC785C" stroke-width="1.4"/>
      <g stroke="#CC785C" stroke-width="1.3" stroke-linecap="round">
        <line x1="10" y1="10" x2="14" y2="10"/><line x1="10" y1="10" x2="10" y2="14"/>
        <line x1="10" y1="10" x2="6" y2="10"/><line x1="10" y1="10" x2="10" y2="6"/>
        <line x1="10" y1="10" x2="12.8" y2="12.8"/><line x1="10" y1="10" x2="7.2" y2="12.8"/>
        <line x1="10" y1="10" x2="7.2" y2="7.2"/><line x1="10" y1="10" x2="12.8" y2="7.2"/>
      </g>
    </g>
    <text x="942" y="424" class="ui" font-size="13" font-weight="bold" fill="#CFD2D6">Claude Watch</text>
    <text x="912" y="456" class="ui" font-size="13.5" fill="#E6E8EA">Claude edited UserService.java</text>
    <text x="912" y="480" class="ui" font-size="13"><tspan fill="#629755">+12</tspan><tspan fill="#A9B7C6">  </tspan><tspan fill="#C75450">−3</tspan><tspan fill="#808890">    · jumped to line 8</tspan></text>
    <!-- buttons -->
    <rect x="912" y="500" width="62" height="26" rx="4" fill="none" stroke="#CC785C"/>
    <text x="943" y="517" text-anchor="middle" class="ui" font-size="12.5" fill="#E0916F">Open</text>
    <rect x="982" y="500" width="86" height="26" rx="4" fill="none" stroke="#CC785C"/>
    <text x="1025" y="517" text-anchor="middle" class="ui" font-size="12.5" fill="#E0916F">Show Diff</text>
    <rect x="1076" y="500" width="60" height="26" rx="4" fill="none" stroke="#5A5E61"/>
    <text x="1106" y="517" text-anchor="middle" class="ui" font-size="12.5" fill="#9DA0A8">Mute</text>
  </g>

  <!-- tool window: Claude Watch -->
  <rect x="0" y="600" width="1280" height="176" fill="#3C3F41"/>
  <rect x="0" y="600" width="1280" height="26" fill="#313335"/>
  <!-- header icon + title -->
  <g transform="translate(12,605) scale(0.95)">
    <path d="M0 8 Q8 2.5 16 8 Q8 13.5 0 8 Z" fill="none" stroke="#CC785C" stroke-width="1.1"/>
    <g stroke="#CC785C" stroke-width="1.0" stroke-linecap="round">
      <line x1="8" y1="8" x2="11" y2="8"/><line x1="8" y1="8" x2="8" y2="11"/>
      <line x1="8" y1="8" x2="5" y2="8"/><line x1="8" y1="8" x2="8" y2="5"/>
    </g>
  </g>
  <text x="34" y="617" class="ui" font-size="12" font-weight="bold" fill="#CFD2D6">Claude Watch</text>
  <!-- toolbar icons right -->
  <text x="1170" y="618" class="ui" font-size="12" fill="#9DA0A8">⏸  Pause</text>
  <text x="1238" y="618" class="ui" font-size="12" fill="#9DA0A8">⟲</text>

  <!-- table header -->
  <rect x="0" y="626" width="1280" height="24" fill="#43474A"/>
  <g class="ui" font-size="11.5" fill="#A9B7C6" font-weight="bold">
    <text x="16" y="642">Time</text>
    <text x="110" y="642">File</text>
    <text x="380" y="642">Change</text>
    <text x="520" y="642">Path</text>
  </g>
  <!-- rows -->
  <g class="ui" font-size="12.5">
    <rect x="0" y="650" width="1280" height="24" fill="#323537"/>
    <text x="16" y="667" fill="#808890">09:42:13</text>
    <text x="110" y="667" fill="#E6E8EA">UserService.java</text>
    <text x="380" y="667"><tspan fill="#629755">+12</tspan><tspan fill="#A9B7C6"> </tspan><tspan fill="#C75450">−3</tspan></text>
    <text x="520" y="667" fill="#808890">src/main/java/com/app</text>

    <text x="16" y="691" fill="#808890">09:42:13</text>
    <text x="110" y="691" fill="#E6E8EA">OrderService.java</text>
    <text x="380" y="691"><tspan fill="#629755">+4</tspan><tspan fill="#A9B7C6"> </tspan><tspan fill="#C75450">−0</tspan></text>
    <text x="520" y="691" fill="#808890">src/main/java/com/app</text>

    <rect x="0" y="698" width="1280" height="24" fill="#323537"/>
    <text x="16" y="715" fill="#808890">09:42:12</text>
    <text x="110" y="715" fill="#6A8759">schema.sql</text>
    <text x="380" y="715" fill="#629755">new (+88)</text>
    <text x="520" y="715" fill="#808890">src/main/resources</text>

    <text x="16" y="739" fill="#808890">09:41:50</text>
    <text x="110" y="739" fill="#E6E8EA">App.java</text>
    <text x="380" y="739" fill="#A9B7C6">changed</text>
    <text x="520" y="739" fill="#808890">src/main/java/com/app</text>

    <rect x="0" y="746" width="1280" height="24" fill="#323537"/>
    <text x="16" y="763" fill="#808890">09:40:31</text>
    <text x="110" y="763" fill="#E6E8EA">README.md</text>
    <text x="380" y="763"><tspan fill="#629755">+6</tspan><tspan fill="#A9B7C6"> </tspan><tspan fill="#C75450">−2</tspan></text>
    <text x="520" y="763" fill="#808890">.</text>
  </g>

  <!-- status bar -->
  <rect x="0" y="776" width="1280" height="24" fill="#3C3F41"/>
  <text x="16" y="792" class="ui" font-size="11.5" fill="#9DA0A8">main</text>
  <text x="1180" y="792" class="ui" font-size="11.5" fill="#E0916F">● Claude 7</text>
</svg>
